<svg xmlns="http://www.w3.org/2000/svg" xmlns:xlink="http://www.w3.org/1999/xlink" width="93" height="71"><defs><path id="a" d="M90.084 5.266c-.331-.313-.573-.718-.864-1.07-.832-1.007-1.813-1.837-3.003-2.386C82.32.017 78.268-.392 74.047.354c-3.993.706-7.723 2.033-11.34 3.865-4.828 2.447-9.564 5.013-13.733 8.47-2.58 2.14-5.478 3.91-7.642 6.572-.214-.124-.375-.2-.517-.3-4.468-3.028-9.183-5.43-14.69-5.996-2.623-.268-5.231-.517-7.867-.236-3.076.324-5.656 1.884-8.304 3.256-1.691.874-3.124 2.105-4.404 3.505-.803.878-1.635 1.744-2.33 2.702-1.287 1.777-1.969 3.842-2.445 5.943-.457 2.005-.848 4.026-.763 6.123.125 3.156.872 6.131 1.961 9.09 1.898 5.142 4.457 9.861 8.078 14 .21.24.404.501.597.758 2.838 3.785 6.41 6.7 10.661 8.786 1.32.65 2.705 1.17 4.049 1.784 3.9 1.78 7.997 2.446 12.268 2.306 1.933-.064 3.742-.537 5.461-1.363.913-.438 1.752-1.015 2.648-1.48 3.928-2.03 6.58-5.261 8.57-9.075.428-.818.933-1.299 1.785-1.532 2.567-.705 4.856-1.992 7.06-3.436 2.273-1.484 4.517-3.02 6.766-4.54 2.426-1.636 4.448-3.713 6.39-5.866 1.937-2.153 3.754-4.41 5.7-6.556 1.982-2.19 3.81-4.487 5.332-7.01 1.159-1.924 2.172-3.937 3.323-5.866 1.445-2.422 2.28-4.997 2.3-7.82.009-1.102-.008-2.201.029-3.304.109-3.007-.638-5.706-2.907-7.868zM52.045 59.853a131.467 131.467 0 0 1-2.185 3.2c-1.15 1.615-2.762 2.713-4.406 3.742-2.192 1.368-4.422 2.66-7.075 3.007-3.408.44-6.76.157-9.983-.937-2.568-.872-5.12-1.889-7.519-3.152-3.752-1.977-6.986-4.653-9.514-8.116-.872-1.194-1.813-2.337-2.734-3.49-1.801-2.257-3.154-4.775-4.289-7.41A91.177 91.177 0 0 1 2.41 41.8c-1.406-3.853-1.821-7.784-.97-11.84.497-2.365 1.07-4.694 2.432-6.716.662-.98 1.522-1.832 2.314-2.724 1.17-1.324 2.495-2.482 4.07-3.281 2.496-1.264 4.879-2.874 7.794-3.06 2.302-.145 4.608-.363 6.902.105.634.13 1.272.234 1.914.315 2.27.283 4.426.908 6.45 1.986 1.057.565 2.156 1.057 3.226 1.602 2.088 1.061 3.732 2.668 5.44 4.238 4.939 4.532 8.222 10.158 10.992 16.147.63 1.364.909 2.797 1.026 4.452-3.501 1.784-6.87 3.693-10.863 4.06-.255-.686-.489-1.235-.67-1.8-1.168-3.705-3.651-6.486-6.414-9.044-1.453-1.348-3.02-2.58-4.539-3.859-3.299-2.776-6.893-5.11-10.746-7.05a17.92 17.92 0 0 0-6.211-1.833c-1.26-.133-2.589-.012-3.836.243-1.168.234-2.19.883-2.787 2.191 1.284-.371 2.447-.71 3.614-1.05.118.295.21.416.214.542.053 4.193 1.45 8.063 2.868 11.921 1.215 3.31 2.992 6.337 4.902 9.29 1.801 2.786 4.378 4.735 6.99 6.644 1.713 1.251 3.433 2.51 5.5 3.164.13.04.251.117.356.202 2.916 2.373 6.389 2.95 9.995 3.103.186.008.368.02.55.037.044.004.088.028.242.076-.065.279-.073.598-.21.844-.534.968-1.01 1.99-1.684 2.853-2.254 2.89-5.299 3.854-8.852 3.41-1.325-.165-2.642-.395-4.03-.609 1.308 1.88 6.626 2.607 9.869 1.28 3.505-1.437 5.318-4.424 6.583-7.717l7.588-.949c-.146.343-.223.642-.384.88zM51 30.187c1.04-1.145 2.032-2.355 3.141-3.444a250.578 250.578 0 0 1 6.742-6.352c1.294-1.173 2.58-2.416 4.068-3.29 3.37-1.99 6.794-3.941 10.588-5.026 1.807-.52 3.702-.738 5.557-1.065.25-.044.528.065.879.113 0 .577.064 1.117-.012 1.638-.4 2.714-1.577 5.09-3.234 7.239-2.339 3.029-4.718 6.025-7.032 9.066-1.565 2.049-3.617 3.533-5.605 5.106-2.71 2.145-5.399 4.32-8.104 6.473-.537.427-1.113.798-1.887 1.355-.686-4.497-3.17-7.953-5.1-11.812H51zM42 47h-2c.007-1.159.55-1.892 1.071-3 .342 1.113.612 1.983.929 3zm-11.138 7c-.267-.122-.559-.203-.789-.374-1.697-1.238-3.407-2.465-5.063-3.76-2.067-1.612-3.448-3.772-4.784-5.965a45.944 45.944 0 0 1-5.971-15.66c-.19-1.024-.169-2.088-.255-3.241 1.825.004 3.39.329 4.87.873 4.85 1.787 8.984 4.747 13.13 7.934-1.533 3.228-2.901 6.412-3.008 9.969-.107 3.516.164 6.94 1.87 10.224zm61.101-37.233c-.056 2.12-.69 4.087-1.72 5.928-1.26 2.253-2.484 4.534-3.817 6.743-1.41 2.338-3.106 4.47-4.927 6.5-1.85 2.064-3.635 4.184-5.448 6.28-2.06 2.385-4.253 4.618-6.883 6.387-2.794 1.881-5.573 3.791-8.396 5.628a13.619 13.619 0 0 1-2.852 1.393c-2.173.768-4.366 1.506-6.591 2.092-1.099.287-2.29.29-3.437.279-2.58-.025-5.198.088-7.743-.267-4.951-.69-7.936-2.879-9.466-8.41-1.434-5.18-.538-10.143 2.019-14.855.174.036.335.02.428.093 2.407 1.954 4.657 4.07 6.595 6.505.622.779.784 1.497.255 2.386-.537.904-.99 1.861-1.53 2.887-3.192-.933-4.476-3.263-4.928-6.586-.17.53-.3.771-.323 1.022-.323 3.561 1.401 6.161 5.06 6.96 3.72.816 7.412.651 11.014-.827 4.136-1.696 7.972-3.84 11.394-6.75 2.144-1.826 4.337-3.607 6.623-5.246 3.244-2.317 5.824-5.249 8.223-8.37 1.689-2.197 3.397-4.381 5.005-6.638 1.595-2.25 2.681-4.74 3.057-7.498.327-2.407-.331-4.482-2.165-6.121-.307-.275-.654-.553-1.03-.683-1.494-.508-3.025-.803-4.604-.508 1.191.411 2.455.662 3.518 1.263 1.058.598 1.906 1.559 2.532 2.839-1.228.198-2.302.392-3.389.541-2.827.388-5.476 1.357-7.996 2.633a105.908 105.908 0 0 0-7.133 3.969c-2.391 1.453-4.144 3.658-6.167 5.547-.877.82-1.745 1.652-2.593 2.5a254.863 254.863 0 0 0-3.59 3.642c-.219.226-.332.557-.619 1.058-2.152-3.63-4.717-6.34-7.528-8.855.384-.973 1.07-1.603 1.761-2.184 5.92-4.97 12.06-9.59 19.111-12.93 3.583-1.695 7.185-3.12 11.091-3.795 3.89-.67 7.634-.315 11.236 1.353 1.947.9 5.222 4.8 5.699 6.9.161.715.254 1.462.266 2.197.037 1.671.033 3.335-.012 4.998z"/></defs><g fill="none" fill-rule="evenodd"><use fill="#FFA28A" xlink:href="#a"/><use fill="#FFCEC5" xlink:href="#a"/><use fill="#BB946A" xlink:href="#a"/></g></svg>